<?xml version="1.0" encoding="UTF-8" standalone="no"?>
<svg
   xmlns:dc="http://purl.org/dc/elements/1.1/"
   xmlns:cc="http://creativecommons.org/ns#"
   xmlns:rdf="http://www.w3.org/1999/02/22-rdf-syntax-ns#"
   xmlns:svg="http://www.w3.org/2000/svg"
   xmlns="http://www.w3.org/2000/svg"
   width="128"
   height="128"
   viewBox="0 0 33.866666 33.866666"
   version="1.1"
   id="svg1158">
  <defs
     id="defs1152" />
  <metadata
     id="metadata1155">
    <rdf:RDF>
      <cc:Work
         rdf:about="">
        <dc:format>image/svg+xml</dc:format>
        <dc:type
           rdf:resource="http://purl.org/dc/dcmitype/StillImage" />
        <dc:title></dc:title>
      </cc:Work>
    </rdf:RDF>
  </metadata>
  <path
     id="rect840"
     d="M 16.855503,1.1940676 C 12.349875,1.194337 8.6981963,4.8474795 8.6979269,9.353107 h -0.0015 l 0.00595,3.859717 H 5.4170723 c -0.6871658,0 -1.2396854,0.552511 -1.2396854,1.239677 v 16.978947 c 0,0.687169 0.5525196,1.241151 1.2396854,1.241151 H 28.736565 c 0.687168,0 1.239679,-0.553982 1.239679,-1.241151 V 14.452501 c 0,-0.687166 -0.552511,-1.239677 -1.239679,-1.239677 H 25.014588 V 9.353107 C 25.014318,4.8471562 21.361499,1.193872 16.855551,1.1940676 Z m 0,2.98491 c 2.857755,9.64e-5 5.174038,2.3163712 5.174135,5.1741294 v 3.859717 H 11.681373 V 9.353107 c 9.7e-5,-2.8577582 2.316372,-5.174033 5.17413,-5.1741294 z m 0.276954,12.3968094 a 3.4730389,3.4730389 0 0 1 3.472869,3.472871 3.4730389,3.4730389 0 0 1 -2.211207,3.235479 l 1.434571,5.348511 h -5.30161 l 1.08289,-5.467202 a 3.4730389,3.4730389 0 0 1 -1.951844,-3.116788 3.4730389,3.4730389 0 0 1 3.474331,-3.472871 z"
     style="opacity:1;fill:#000000;fill-opacity:1;fill-rule:nonzero;stroke:none;stroke-width:2.83561492;stroke-linecap:round;stroke-linejoin:round;stroke-miterlimit:4;stroke-dasharray:none;stroke-dashoffset:0;stroke-opacity:1;paint-order:fill markers stroke" />
</svg>
