<?xml version="1.0" encoding="UTF-8" standalone="no"?>
<svg
   xmlns:dc="http://purl.org/dc/elements/1.1/"
   xmlns:cc="http://creativecommons.org/ns#"
   xmlns:rdf="http://www.w3.org/1999/02/22-rdf-syntax-ns#"
   xmlns:svg="http://www.w3.org/2000/svg"
   xmlns="http://www.w3.org/2000/svg"
   width="128"
   height="128"
   viewBox="0 0 33.866666 33.866666"
   version="1.1"
   id="svg1158">
  <defs
     id="defs1152" />
  <metadata
     id="metadata1155">
    <rdf:RDF>
      <cc:Work
         rdf:about="">
        <dc:format>image/svg+xml</dc:format>
        <dc:type
           rdf:resource="http://purl.org/dc/dcmitype/StillImage" />
        <dc:title></dc:title>
      </cc:Work>
    </rdf:RDF>
  </metadata>
  <path
     id="path820"
     d="M 16.932508,1.030783 A 15.902674,15.902674 0 0 0 1.0307827,16.932508 15.902674,15.902674 0 0 0 16.932508,32.835883 15.902674,15.902674 0 0 0 32.835883,16.932508 15.902674,15.902674 0 0 0 16.932508,1.030783 Z m 0,5.8159381 A 10.086131,10.086131 0 0 1 27.018299,16.932508 10.086131,10.086131 0 0 1 16.932508,27.018293 10.086131,10.086131 0 0 1 6.8467239,16.932508 10.086131,10.086131 0 0 1 16.932508,6.8467211 Z"
     style="opacity:1;fill:#000000;fill-opacity:1;fill-rule:nonzero;stroke:none;stroke-width:2.96373391;stroke-linecap:round;stroke-linejoin:round;stroke-miterlimit:4;stroke-dasharray:none;stroke-dashoffset:0;stroke-opacity:1;paint-order:fill markers stroke" />
</svg>
