<?xml version="1.0" encoding="UTF-8" standalone="no"?>
<svg
   xmlns:dc="http://purl.org/dc/elements/1.1/"
   xmlns:cc="http://creativecommons.org/ns#"
   xmlns:rdf="http://www.w3.org/1999/02/22-rdf-syntax-ns#"
   xmlns:svg="http://www.w3.org/2000/svg"
   xmlns="http://www.w3.org/2000/svg"
   id="svg1158"
   version="1.1"
   viewBox="0 0 33.866666 33.866666"
   height="128"
   width="128">
  <defs
     id="defs1152" />
  <metadata
     id="metadata1155">
    <rdf:RDF>
      <cc:Work
         rdf:about="">
        <dc:format>image/svg+xml</dc:format>
        <dc:type
           rdf:resource="http://purl.org/dc/dcmitype/StillImage" />
        <dc:title></dc:title>
      </cc:Work>
    </rdf:RDF>
  </metadata>
  <g
     transform="translate(0,-263.13334)"
     id="layer1">
    <path
       id="path976"
       d="m 17.054386,264.20001 a 15.83795,15.963848 0 0 0 -15.8379552,15.96441 15.83795,15.963848 0 0 0 15.8379552,15.9635 15.83795,15.963848 0 0 0 15.83796,-15.9635 15.83795,15.963848 0 0 0 -15.83796,-15.96441 z m 0,2.42243 a 13.434612,13.541405 0 0 1 13.435396,13.54198 13.434612,13.541405 0 0 1 -13.435396,13.54107 13.434612,13.541405 0 0 1 -13.43449,-13.54107 13.434612,13.541405 0 0 1 13.43449,-13.54198 z"
       style="display:inline;opacity:1;fill:#000000;fill-opacity:1;fill-rule:nonzero;stroke:none;stroke-width:1.74783695;stroke-linecap:round;stroke-linejoin:round;stroke-miterlimit:4;stroke-dasharray:none;stroke-dashoffset:0;stroke-opacity:1;paint-order:fill markers stroke" />
    <path
       d="m 25.039125,280.274 c -0.0037,0.28349 -12.123756,7.07271 -12.367423,6.92778 -0.243667,-0.14493 -0.06326,-14.03583 0.184083,-14.17439 0.247349,-0.13856 12.187022,6.96313 12.18334,7.24661 z"
       id="path996"
       style="display:inline;opacity:1;fill:#000000;fill-opacity:1;fill-rule:nonzero;stroke:none;stroke-width:1.73887897;stroke-linecap:round;stroke-linejoin:round;stroke-miterlimit:4;stroke-dasharray:none;stroke-dashoffset:0;stroke-opacity:1;paint-order:fill markers stroke" />
  </g>
</svg>
