<?xml version="1.0" encoding="UTF-8" standalone="no"?>
<svg
   xmlns:dc="http://purl.org/dc/elements/1.1/"
   xmlns:cc="http://creativecommons.org/ns#"
   xmlns:rdf="http://www.w3.org/1999/02/22-rdf-syntax-ns#"
   xmlns:svg="http://www.w3.org/2000/svg"
   xmlns="http://www.w3.org/2000/svg"
   id="svg1158"
   version="1.1"
   viewBox="0 0 33.866666 33.866666"
   height="128"
   width="128">
  <defs
     id="defs1152" />
  <metadata
     id="metadata1155">
    <rdf:RDF>
      <cc:Work
         rdf:about="">
        <dc:format>image/svg+xml</dc:format>
        <dc:type
           rdf:resource="http://purl.org/dc/dcmitype/StillImage" />
        <dc:title></dc:title>
      </cc:Work>
    </rdf:RDF>
  </metadata>
  <g
     transform="translate(0,-263.13334)"
     id="layer1">
    <ellipse
       ry="2.1611898"
       rx="8.8643885"
       cy="269.28619"
       cx="23.879339"
       id="path820"
       style="display:inline;opacity:1;fill:#000000;fill-opacity:1;fill-rule:nonzero;stroke:none;stroke-width:2.90711665;stroke-linecap:round;stroke-linejoin:round;stroke-miterlimit:4;stroke-dasharray:none;stroke-dashoffset:0;stroke-opacity:1;paint-order:fill markers stroke" />
    <path
       id="path841"
       d="m 15.249701,271.92263 v 3.8818 c 3.633279,2.12956 13.62349,2.21189 17.24335,0 v -3.84095 c -3.834801,1.637 -13.378792,1.67254 -17.24335,-0.0409 z"
       style="display:inline;fill:#000000;stroke:none;stroke-width:0.53065121px;stroke-linecap:butt;stroke-linejoin:miter;stroke-opacity:1" />
    <path
       id="path841-6"
       d="m 15.249701,278.01092 v 3.8818 c 3.633279,2.12956 13.62349,2.21189 17.24335,0 v -3.84094 c -3.834801,1.63702 -13.378792,1.67254 -17.24335,-0.0409 z"
       style="display:inline;fill:#000000;stroke:none;stroke-width:0.53065121px;stroke-linecap:butt;stroke-linejoin:miter;stroke-opacity:1" />
    <path
       id="path841-6-7"
       d="m 15.249701,283.77232 v 3.8818 c 3.633279,2.12956 13.62349,2.21189 17.24335,0 v -3.84095 c -3.834801,1.63702 -13.378792,1.67256 -17.24335,-0.0409 z"
       style="display:inline;fill:#000000;stroke:none;stroke-width:0.53065121px;stroke-linecap:butt;stroke-linejoin:miter;stroke-opacity:1" />
    <rect
       y="293.66071"
       x="3.7881925"
       height="1.2258316"
       width="15.486326"
       id="rect873"
       style="display:inline;opacity:1;fill:#000000;fill-opacity:1;fill-rule:nonzero;stroke:none;stroke-width:2.00561094;stroke-linecap:round;stroke-linejoin:round;stroke-miterlimit:4;stroke-dasharray:none;stroke-dashoffset:0;stroke-opacity:1;paint-order:fill markers stroke" />
    <rect
       y="282.97021"
       x="3.7881925"
       height="1.2258316"
       width="9.5921335"
       id="rect873-5"
       style="display:inline;opacity:1;fill:#000000;fill-opacity:1;fill-rule:nonzero;stroke:none;stroke-width:1.57844758;stroke-linecap:round;stroke-linejoin:round;stroke-miterlimit:4;stroke-dasharray:none;stroke-dashoffset:0;stroke-opacity:1;paint-order:fill markers stroke" />
    <rect
       y="272.36646"
       x="3.7881925"
       height="1.2258316"
       width="9.5921335"
       id="rect873-5-3"
       style="display:inline;opacity:1;fill:#000000;fill-opacity:1;fill-rule:nonzero;stroke:none;stroke-width:1.57844758;stroke-linecap:round;stroke-linejoin:round;stroke-miterlimit:4;stroke-dasharray:none;stroke-dashoffset:0;stroke-opacity:1;paint-order:fill markers stroke" />
    <path
       id="path905"
       d="m 1.4667724,275.35234 v 5.92317 H 13.240596 v -5.90867 z m 2.2386839,1.78576 h 1.4199065 v 2.31953 H 3.7054563 Z m 3.221218,0 h 1.4199064 v 2.31953 H 6.9266743 Z m 3.0056408,0 h 1.4199119 v 2.31953 H 9.9323151 Z"
       style="display:inline;fill:#000000;stroke:none;stroke-width:0.53065121px;stroke-linecap:butt;stroke-linejoin:miter;stroke-opacity:1" />
    <path
       id="path905-2"
       d="m 1.4667724,264.76934 v 5.92319 H 13.240596 v -2.16159 c 1.743057,-2.59855 6.746812,-2.80411 8.07005,-2.82559 l -0.03063,-0.92151 h -8.039397 z m 2.2386839,1.78575 h 1.4199065 v 2.31953 H 3.7054563 Z m 3.221218,0 h 1.4199064 v 2.31953 H 6.9266743 Z m 3.0056408,0 h 1.4199119 v 2.31953 H 9.9323151 Z"
       style="display:inline;fill:#000000;stroke:none;stroke-width:0.53065121px;stroke-linecap:butt;stroke-linejoin:miter;stroke-opacity:1" />
    <path
       id="path905-2-9"
       d="m 1.4667724,291.9496 v -6.1104 H 13.240596 v 2.22992 c 1.743057,2.68066 6.746812,2.89271 8.07005,2.91488 l -0.03063,0.95064 h -8.039397 z m 2.2386839,-1.84222 h 1.4199065 v -2.39283 H 3.7054563 Z m 3.221218,0 h 1.4199064 v -2.39283 H 6.9266743 Z m 3.0056408,0 h 1.4199119 v -2.39283 H 9.9323151 Z"
       style="display:inline;fill:#000000;stroke:none;stroke-width:0.5389713px;stroke-linecap:butt;stroke-linejoin:miter;stroke-opacity:1" />
  </g>
</svg>
