<?xml version="1.0" encoding="UTF-8" standalone="no"?>
<svg
   xmlns:dc="http://purl.org/dc/elements/1.1/"
   xmlns:cc="http://creativecommons.org/ns#"
   xmlns:rdf="http://www.w3.org/1999/02/22-rdf-syntax-ns#"
   xmlns:svg="http://www.w3.org/2000/svg"
   xmlns="http://www.w3.org/2000/svg"
   width="128"
   height="128"
   viewBox="0 0 33.866666 33.866666"
   version="1.1"
   id="svg1158">
  <defs
     id="defs1152" />
  <metadata
     id="metadata1155">
    <rdf:RDF>
      <cc:Work
         rdf:about="">
        <dc:format>image/svg+xml</dc:format>
        <dc:type
           rdf:resource="http://purl.org/dc/dcmitype/StillImage" />
        <dc:title></dc:title>
      </cc:Work>
    </rdf:RDF>
  </metadata>
  <path
     id="rect1901-6"
     d="M 7.8021271,6.7524854 2.0353193,8.8253264 C 0.70173396,9.304696 0.01405186,10.764308 0.49342133,12.097893 L 6.1729176,27.898456 c 0.4793695,1.333589 1.9389808,2.021268 3.272567,1.541899 l 2.4796894,-0.891306 -1.635072,-0.02142 C 8.7283072,28.507234 7.4882756,27.233589 7.5098761,25.671807 L 7.7659497,7.167618 c 0.00195,-0.1412464 0.014436,-0.2798325 0.036176,-0.4151341 z"
     style="opacity:1;fill:#000000;fill-opacity:1;fill-rule:nonzero;stroke:none;stroke-width:0.39110693;stroke-linecap:round;stroke-linejoin:round;stroke-miterlimit:4;stroke-dasharray:none;stroke-dashoffset:0;stroke-opacity:1;paint-order:fill markers stroke" />
  <path
     id="rect1901"
     d="m 11.461736,5.3791474 c -1.417128,0 -2.558108,1.1407789 -2.558108,2.5579054 V 24.727348 c 0,1.417128 1.14098,2.558109 2.558108,2.558109 h 3.713369 l -2.67897,-0.952342 C 11.007899,25.804052 10.235593,24.179933 10.764657,22.691696 L 16.919314,5.3791474 Z"
     style="opacity:1;fill:#000000;fill-opacity:1;fill-rule:nonzero;stroke:none;stroke-width:0.39110693;stroke-linecap:round;stroke-linejoin:round;stroke-miterlimit:4;stroke-dasharray:none;stroke-dashoffset:0;stroke-opacity:1;paint-order:fill markers stroke" />
  <path
     id="rect1901-6-0"
     d="m 20.186424,4.8480019 c -1.043482,0.013559 -2.010758,0.6693642 -2.376613,1.7142979 L 12.261282,22.409348 c -0.468294,1.337516 0.231466,2.791339 1.568981,3.259632 l 10.74195,3.761068 c 1.337517,0.468294 2.791337,-0.231667 3.25963,-1.569185 L 33.380374,12.013816 C 33.848667,10.6763 33.148909,9.2226806 31.811394,8.7543862 L 21.06924,4.9933192 C 20.776659,4.8908798 20.478601,4.844205 20.186424,4.8480019 Z m 4.591134,6.7520951 0.02041,0.08792 c 0.09469,0.402861 0.290206,0.913153 0.517806,1.3505 0.241164,0.463027 0.422147,0.760462 0.945875,1.559683 0.28972,0.441254 0.445917,0.683673 0.545496,0.847853 0.670096,1.10249 0.881819,1.855221 0.747199,2.64845 -0.18264,1.066501 -0.617375,1.759532 -1.299163,2.070012 -0.450156,0.204909 -0.951077,0.231363 -1.588586,0.0849 -0.181989,-0.04192 -0.584027,-0.184668 -0.7375,-0.260925 -0.132289,-0.06693 -0.266827,-0.145515 -0.356725,-0.209184 -0.420688,-0.297224 -0.697099,-0.686685 -0.811269,-1.144548 -0.01102,-0.04565 -0.02167,-0.08196 -0.02305,-0.08064 -0.0033,0.0016 -0.05138,0.17766 -0.129956,0.478193 -0.23283,0.893542 -0.307257,1.461336 -0.255264,1.946117 0.05303,0.486967 0.247808,0.896373 0.603299,1.264805 0.174146,0.181578 0.337008,0.315694 0.588947,0.487692 l 0.135213,0.09237 -2.566192,-0.911113 -2.566191,-0.910909 0.149561,0.01313 c 0.325284,0.02928 0.577594,0.02645 0.822184,-0.0084 0.830014,-0.117236 1.378235,-0.567706 1.917216,-1.574843 0.132152,-0.247033 0.368371,-0.746678 0.508308,-1.074417 l 0.03435,-0.07841 -0.05215,0.03941 c -0.203123,0.155612 -0.472882,0.284133 -0.722543,0.343386 -0.449078,0.107308 -0.963362,0.05354 -1.507133,-0.157647 -0.736234,-0.284949 -1.229437,-0.700513 -1.477427,-1.243988 -0.07629,-0.165891 -0.107861,-0.265993 -0.140872,-0.44646 -0.104146,-0.570433 0.05773,-1.248694 0.465866,-1.951172 0.399489,-0.688313 1.040093,-1.133301 2.251506,-1.563322 0.168279,-0.06002 0.47798,-0.160402 0.969926,-0.316908 0.696563,-0.221768 0.940245,-0.30507 1.293909,-0.44262 0.655553,-0.254473 1.250722,-0.57389 1.646388,-0.883424 z"
     style="opacity:1;fill:#000000;fill-opacity:1;fill-rule:nonzero;stroke:none;stroke-width:0.39110693;stroke-linecap:round;stroke-linejoin:round;stroke-miterlimit:4;stroke-dasharray:none;stroke-dashoffset:0;stroke-opacity:1;paint-order:fill markers stroke" />
</svg>
