<?xml version="1.0" encoding="UTF-8" standalone="no"?>
<svg
   xmlns:dc="http://purl.org/dc/elements/1.1/"
   xmlns:cc="http://creativecommons.org/ns#"
   xmlns:rdf="http://www.w3.org/1999/02/22-rdf-syntax-ns#"
   xmlns:svg="http://www.w3.org/2000/svg"
   xmlns="http://www.w3.org/2000/svg"
   xmlns:sodipodi="http://sodipodi.sourceforge.net/DTD/sodipodi-0.dtd"
   xmlns:inkscape="http://www.inkscape.org/namespaces/inkscape"
   width="128"
   height="128"
   viewBox="0 0 33.866666 33.866666"
   version="1.1"
   id="svg1158"
   sodipodi:docname="stateofthecards-logo.svg"
   inkscape:version="0.92.5 (2060ec1f9f, 2020-04-08)">
  <sodipodi:namedview
     pagecolor="#ffffff"
     bordercolor="#666666"
     borderopacity="1"
     objecttolerance="10"
     gridtolerance="10"
     guidetolerance="10"
     inkscape:pageopacity="0"
     inkscape:pageshadow="2"
     inkscape:window-width="1920"
     inkscape:window-height="1017"
     id="namedview2647"
     showgrid="false"
     inkscape:zoom="5.2149125"
     inkscape:cx="37.521598"
     inkscape:cy="56.072458"
     inkscape:window-x="0"
     inkscape:window-y="0"
     inkscape:window-maximized="1"
     inkscape:current-layer="svg1158" />
  <defs
     id="defs1152" />
  <metadata
     id="metadata1155">
    <rdf:RDF>
      <cc:Work
         rdf:about="">
        <dc:format>image/svg+xml</dc:format>
        <dc:type
           rdf:resource="http://purl.org/dc/dcmitype/StillImage" />
        <dc:title></dc:title>
      </cc:Work>
    </rdf:RDF>
  </metadata>
  <rect
     style="opacity:1;fill:#056cb8;fill-opacity:1;fill-rule:nonzero;stroke:none;stroke-width:0.97305387;stroke-linecap:round;stroke-linejoin:round;stroke-miterlimit:4;stroke-dasharray:none;stroke-dashoffset:0;stroke-opacity:1;paint-order:fill markers stroke"
     id="rect3192"
     width="33.741623"
     height="33.814735"
     x="0.10215544"
     y="0.025814475"
     ry="4.274694" />
  <path
     id="rect1901-6-1"
     d="M 9.0498698,7.9502238 3.9429038,9.7858894 C 2.7619083,10.210409 2.1529111,11.503011 2.5774309,12.684007 l 5.0296449,13.992652 c 0.4245194,1.180999 1.7171212,1.789994 2.8981182,1.365473 l 2.195962,-0.789321 -1.447987,-0.01897 C 9.8700763,27.21578 8.7719295,26.087867 8.7910584,24.704784 L 9.017832,8.3178567 C 9.019552,8.1927717 9.030617,8.0700428 9.049869,7.9502225 Z"
     style="opacity:1;fill:#000000;fill-opacity:1;fill-rule:nonzero;stroke:none;stroke-width:0.34635627;stroke-linecap:round;stroke-linejoin:round;stroke-miterlimit:4;stroke-dasharray:none;stroke-dashoffset:0;stroke-opacity:1;paint-order:fill markers stroke"
     inkscape:connector-curvature="0" />
  <path
     id="rect1901-6"
     d="M 9.0498689,7.1250825 3.9429028,8.9607481 C 2.7619072,9.3852678 2.1529101,10.67787 2.5774299,11.858866 l 5.0296448,13.992652 c 0.4245196,1.180999 1.7171213,1.789994 2.8981183,1.365473 L 12.701155,26.42767 11.253168,26.4087 C 9.8700753,26.390639 8.7719285,25.262726 8.7910574,23.879643 L 9.017831,7.4927154 C 9.019551,7.3676304 9.030615,7.2449015 9.049868,7.1250812 Z"
     style="opacity:1;fill:#ffffff;fill-opacity:1;fill-rule:nonzero;stroke:none;stroke-width:0.34635627;stroke-linecap:round;stroke-linejoin:round;stroke-miterlimit:4;stroke-dasharray:none;stroke-dashoffset:0;stroke-opacity:1;paint-order:fill markers stroke"
     inkscape:connector-curvature="0" />
  <path
     id="rect1901-8"
     d="m 12.290745,6.734024 c -1.254981,0 -2.265409,1.0102503 -2.265409,2.265228 v 14.869139 c 0,1.254979 1.010428,2.265409 2.265409,2.265409 h 3.288482 L 13.206786,25.290425 C 11.888835,24.821899 11.204897,23.383613 11.673425,22.06566 L 17.123862,6.734024 Z"
     style="opacity:1;fill:#000000;fill-opacity:1;fill-rule:nonzero;stroke:none;stroke-width:0.34635627;stroke-linecap:round;stroke-linejoin:round;stroke-miterlimit:4;stroke-dasharray:none;stroke-dashoffset:0;stroke-opacity:1;paint-order:fill markers stroke"
     inkscape:connector-curvature="0" />
  <path
     id="rect1901"
     d="m 12.290744,5.9088827 c -1.254981,0 -2.265408,1.0102503 -2.265408,2.2652281 V 23.04325 c 0,1.254979 1.010427,2.265409 2.265408,2.265409 h 3.288482 L 13.206785,24.465284 C 11.888834,23.996758 11.204896,22.558472 11.673424,21.240519 L 17.123862,5.9088827 Z"
     style="opacity:1;fill:#ffffff;fill-opacity:1;fill-rule:nonzero;stroke:none;stroke-width:0.34635627;stroke-linecap:round;stroke-linejoin:round;stroke-miterlimit:4;stroke-dasharray:none;stroke-dashoffset:0;stroke-opacity:1;paint-order:fill markers stroke"
     inkscape:connector-curvature="0" />
  <path
     id="rect1901-6-0-7"
     d="m 20.017148,6.2636525 c -0.924087,0.012007 -1.780685,0.5927751 -2.10468,1.5181467 L 12.998806,21.815618 c -0.414712,1.184476 0.204981,2.471952 1.389456,2.886663 l 9.512851,3.330724 c 1.184477,0.414713 2.471949,-0.205159 2.886661,-1.389638 l 4.913664,-14.033818 c 0.41471,-1.184476 -0.204981,-2.471771 -1.389457,-2.8864828 L 20.798951,6.3923425 C 20.539848,6.3016245 20.275893,6.26029 20.017148,6.2636525 Z m 4.065812,5.9795165 0.01807,0.07786 c 0.08386,0.356766 0.257002,0.808669 0.45856,1.195975 0.213569,0.410048 0.373843,0.673451 0.837647,1.381224 0.256569,0.390765 0.394893,0.605446 0.48308,0.750841 0.593422,0.976341 0.78092,1.642946 0.661704,2.345413 -0.161744,0.944471 -0.546735,1.558204 -1.150513,1.833159 -0.398648,0.181464 -0.842254,0.204891 -1.406817,0.07519 -0.161167,-0.03713 -0.517203,-0.163538 -0.653117,-0.23107 -0.117151,-0.05927 -0.236295,-0.128866 -0.315908,-0.18525 -0.372553,-0.263215 -0.617335,-0.608114 -0.718444,-1.013587 -0.0097,-0.04042 -0.01919,-0.07259 -0.02041,-0.07141 -0.0028,0.0014 -0.0455,0.157331 -0.115087,0.423477 -0.20619,0.791302 -0.2721,1.294129 -0.226058,1.723441 0.04697,0.431249 0.219453,0.79381 0.534271,1.120086 0.15422,0.160801 0.298446,0.279573 0.521559,0.43189 l 0.11974,0.0818 -2.272567,-0.806863 -2.272565,-0.806681 0.132449,0.01162 c 0.288065,0.02593 0.511506,0.02342 0.728109,-0.0074 0.735042,-0.103823 1.220536,-0.502749 1.697847,-1.394648 0.117031,-0.218768 0.326222,-0.661243 0.450147,-0.951482 l 0.03042,-0.06943 -0.04619,0.0349 c -0.179882,0.137807 -0.418775,0.251623 -0.639869,0.304096 -0.397695,0.09504 -0.853134,0.04741 -1.334687,-0.139609 -0.651993,-0.252345 -1.088764,-0.620361 -1.308379,-1.10165 -0.06757,-0.146911 -0.09551,-0.235558 -0.124753,-0.395375 -0.09222,-0.505165 0.05112,-1.105819 0.41256,-1.727919 0.353781,-0.609555 0.921086,-1.003628 1.99389,-1.384446 0.149022,-0.05316 0.423288,-0.142048 0.858944,-0.280647 0.616861,-0.196393 0.832661,-0.270164 1.145861,-0.391974 0.580542,-0.225357 1.107613,-0.508226 1.458006,-0.782344 z"
     style="opacity:1;fill:#000000;fill-opacity:1;fill-rule:nonzero;stroke:none;stroke-width:0.34635627;stroke-linecap:round;stroke-linejoin:round;stroke-miterlimit:4;stroke-dasharray:none;stroke-dashoffset:0;stroke-opacity:1;paint-order:fill markers stroke"
     inkscape:connector-curvature="0" />
  <path
     id="rect1901-6-0"
     d="m 20.017147,5.4385112 c -0.924086,0.012007 -1.780685,0.5927751 -2.104679,1.5181468 l -4.913662,14.033819 c -0.414713,1.184476 0.20498,2.471952 1.389455,2.886663 l 9.512851,3.330724 c 1.184478,0.414713 2.47195,-0.205159 2.886661,-1.389638 L 31.701437,11.784408 C 32.116148,10.599932 31.496457,9.3126368 30.31198,8.8979251 L 20.798951,5.5672012 c -0.259104,-0.090718 -0.523058,-0.1320525 -0.781804,-0.12869 z m 4.065813,5.9795168 0.01807,0.07786 c 0.08386,0.356766 0.257001,0.808669 0.458559,1.195975 0.213569,0.410048 0.373843,0.673451 0.837647,1.381224 0.25657,0.390765 0.394894,0.605446 0.48308,0.750841 0.593423,0.976341 0.780921,1.642946 0.661705,2.345413 -0.161744,0.944471 -0.546735,1.558204 -1.150514,1.833159 -0.398648,0.181464 -0.842253,0.204891 -1.406817,0.07519 -0.161167,-0.03713 -0.517203,-0.163538 -0.653116,-0.23107 -0.117152,-0.05927 -0.236296,-0.128866 -0.315908,-0.18525 -0.372554,-0.263215 -0.617336,-0.608114 -0.718444,-1.013587 -0.0097,-0.04042 -0.01919,-0.07259 -0.02041,-0.07141 -0.0028,0.0014 -0.0455,0.157331 -0.115086,0.423477 -0.206191,0.791302 -0.272101,1.294129 -0.226059,1.723441 0.04697,0.431249 0.219454,0.79381 0.534271,1.120086 0.15422,0.160801 0.298446,0.279573 0.521559,0.43189 l 0.119741,0.0818 -2.272567,-0.806863 -2.272565,-0.806681 0.132448,0.01162 c 0.288065,0.02593 0.511506,0.02342 0.728109,-0.0074 0.735043,-0.103823 1.220536,-0.502749 1.697847,-1.394648 0.117031,-0.218768 0.326222,-0.661243 0.450147,-0.951482 l 0.03042,-0.06943 -0.04619,0.0349 c -0.179882,0.137807 -0.418775,0.251623 -0.639869,0.304096 -0.397695,0.09504 -0.853134,0.04741 -1.334687,-0.139609 -0.651993,-0.252345 -1.088764,-0.620361 -1.308379,-1.10165 -0.06757,-0.146911 -0.09551,-0.235558 -0.124753,-0.395375 -0.09222,-0.505165 0.05112,-1.105819 0.412561,-1.727919 0.353781,-0.609555 0.921085,-1.003628 1.993889,-1.384446 0.149023,-0.05316 0.423288,-0.142048 0.858945,-0.280647 0.616861,-0.196393 0.832661,-0.270164 1.14586,-0.391974 0.580543,-0.225357 1.107613,-0.508226 1.458006,-0.782344 z"
     style="opacity:1;fill:#ffffff;fill-opacity:1;fill-rule:nonzero;stroke:none;stroke-width:0.34635627;stroke-linecap:round;stroke-linejoin:round;stroke-miterlimit:4;stroke-dasharray:none;stroke-dashoffset:0;stroke-opacity:1;paint-order:fill markers stroke"
     inkscape:connector-curvature="0" />
</svg>
